<?xml version="1.0" encoding="UTF-8"?>
<svg xmlns="http://www.w3.org/2000/svg" xmlns:xlink="http://www.w3.org/1999/xlink" width="250pt" height="250pt" viewBox="0 0 250 250" version="1.1">
<g id="surface1">
<path style=" stroke:none;fill-rule:evenodd;fill:rgb(89.019608%,2.352941%,7.45098%);fill-opacity:1;" d="M 205.25 67.230469 C 186.507812 41.648438 156.695312 26.53125 124.984375 26.53125 C 93.273438 26.53125 63.460938 41.648438 44.71875 67.230469 Z M 205.25 67.230469 "/>
<path style=" stroke:none;fill-rule:evenodd;fill:rgb(19.215686%,15.294118%,51.372549%);fill-opacity:1;" d="M 124.996094 225.519531 C 161.84375 225.519531 195.675781 205.160156 212.925781 172.597656 C 230.175781 140.039062 228.023438 100.613281 207.328125 70.125 L 42.671875 70.125 C 21.980469 100.613281 19.832031 140.039062 37.089844 172.597656 C 54.34375 205.152344 88.175781 225.507812 125.023438 225.5 Z M 124.996094 225.519531 "/>
<path style=" stroke:none;fill-rule:evenodd;fill:rgb(100%,92.941176%,0%);fill-opacity:1;" d="M 125.410156 36.207031 L 128.050781 44.417969 L 136.6875 44.398438 L 129.691406 49.453125 L 132.375 57.65625 L 125.410156 52.566406 L 118.433594 57.65625 L 121.117188 49.453125 L 114.128906 44.398438 L 122.757812 44.417969 Z M 125.410156 36.207031 "/>
<path style=" stroke:none;fill-rule:evenodd;fill:rgb(100%,100%,100%);fill-opacity:1;" d="M 125.203125 83.808594 C 118.460938 83.925781 117.925781 89.347656 120.601562 96.507812 C 122.179688 105.433594 121.78125 124.300781 121.890625 138.378906 L 128.476562 138.378906 C 128.824219 121.894531 128.734375 100.203125 130.015625 96.894531 C 133.339844 86.789062 130.660156 83.738281 125.171875 83.808594 Z M 125.203125 83.808594 "/>
<path style=" stroke:none;fill-rule:evenodd;fill:rgb(100%,100%,100%);fill-opacity:1;" d="M 88.351562 137.464844 C 92.476562 136.78125 94.71875 135.214844 95.878906 133.121094 C 96.207031 129.730469 97.609375 126.195312 99.738281 122.550781 C 100.472656 119.714844 102.511719 117.636719 105.433594 116.085938 L 117.976562 112.128906 L 118.074219 118.789062 C 111.761719 125.023438 104.707031 130.15625 96.457031 133.585938 C 95.332031 134.742188 94.3125 136.003906 93.421875 137.347656 C 93.003906 138.339844 92.640625 139.355469 92.332031 140.386719 C 92.261719 140.894531 91.734375 141.066406 91.492188 140.535156 C 91.34375 139.664062 91.441406 139.113281 91.296875 138.242188 C 90.539062 138.308594 89.425781 138.242188 88.667969 138.339844 C 88.4375 138.414062 88.191406 138.296875 88.105469 138.070312 C 88.019531 137.84375 88.128906 137.589844 88.351562 137.496094 Z M 88.351562 137.464844 "/>
<path style=" stroke:none;fill-rule:evenodd;fill:rgb(19.215686%,15.294118%,51.372549%);fill-opacity:1;" d="M 105.238281 123.84375 C 106.09375 123.84375 106.785156 123.152344 106.785156 122.300781 C 106.785156 121.449219 106.09375 120.757812 105.238281 120.757812 C 104.386719 120.757812 103.695312 121.449219 103.695312 122.300781 C 103.699219 123.152344 104.386719 123.839844 105.238281 123.84375 Z M 105.238281 123.84375 "/>
<path style=" stroke:none;fill-rule:evenodd;fill:rgb(100%,100%,100%);fill-opacity:1;" d="M 131.90625 109.703125 L 132.003906 116.652344 C 140.210938 117.757812 144.742188 121.625 145.222656 128.523438 C 145.257812 142.328125 119.875 140.101562 112.125 146.085938 C 104.898438 150.808594 103.558594 156.738281 105.046875 163.261719 C 108.371094 170.609375 113.820312 173.410156 119.328125 174.457031 L 119.136719 167.605469 C 111.324219 163.011719 111.03125 156.027344 117.496094 152.648438 C 123.863281 149.605469 132.042969 148.742188 139.402344 146.375 C 149.417969 142.515625 154.84375 134.871094 152.527344 123.3125 C 150.480469 115.398438 142.230469 110.257812 131.875 109.703125 Z M 131.90625 109.703125 "/>
<path style=" stroke:none;fill-rule:evenodd;fill:rgb(100%,100%,100%);fill-opacity:1;" d="M 121.824219 153.78125 L 127.371094 152.671875 L 127.230469 185.671875 L 122.402344 187.601562 Z M 121.824219 153.78125 "/>
<path style=" stroke:none;fill-rule:evenodd;fill:rgb(100%,100%,100%);fill-opacity:1;" d="M 126.792969 197.398438 L 122.695312 199.855469 L 123.273438 226.105469 L 126.746094 226.105469 Z M 126.792969 197.398438 "/>
<path style=" stroke:none;fill-rule:evenodd;fill:rgb(100%,100%,100%);fill-opacity:1;" d="M 130.660156 171.730469 L 130.753906 177.519531 C 133.933594 179.390625 135.761719 181.742188 134.175781 185.285156 C 132.15625 189.035156 117.792969 190.5625 116.035156 195.664062 C 114.582031 201.066406 115.804688 204.746094 120.140625 206.417969 C 120.140625 204.273438 120.125 202.121094 120.09375 199.953125 C 120.6875 197.496094 122.480469 195.976562 125.105469 195.417969 C 132.960938 194.394531 140.675781 191.171875 142 184.757812 C 142.832031 176.511719 137.632812 173.394531 130.660156 171.730469 Z M 130.660156 171.730469 "/>
<path style=" stroke:none;fill-rule:evenodd;fill:rgb(100%,100%,100%);fill-opacity:1;" d="M 129.835938 206.914062 C 129.835938 207.957031 129.867188 209.003906 129.886719 210.046875 C 132.585938 211.304688 134.660156 213.605469 135.625 216.421875 C 135.835938 217.183594 137.238281 217.175781 137.21875 215.78125 C 136.75 211.078125 133.777344 208.515625 129.835938 206.902344 Z M 129.835938 206.914062 "/>
<path style="fill:none;stroke-width:2;stroke-linecap:butt;stroke-linejoin:miter;stroke:rgb(19.215686%,15.294118%,51.372549%);stroke-opacity:1;stroke-miterlimit:2.61;" d="M 337.521132 285.407212 C 383.344394 212.091208 366.398227 116.006258 298.261399 62.781572 M 344.637187 289.857781 C 392.743414 212.898746 374.95935 112.035354 303.440575 56.157327 M 89.849653 63.097301 C 21.888905 116.54057 5.246324 212.674093 51.288167 285.850447 M 84.457966 56.649136 C 13.194203 112.848965 -4.12841 213.785217 44.311762 290.531742 M 358.158904 298.29747 C 410.582124 214.416676 391.195126 104.49428 313.252472 43.601012 M 73.000633 45.398241 C -4.019119 107.46335 -21.748538 217.658974 31.919384 300.750445 M 350.532825 293.531171 C 400.509142 213.554492 382.026831 108.750555 307.708993 50.69278 M 80.3717 51.051011 C 6.248157 109.339511 -11.906282 214.185951 38.312904 293.998694 " transform="matrix(0.643352,0,0,0.643352,0.0193005,0)"/>
<path style=" stroke:none;fill-rule:nonzero;fill:rgb(19.215686%,15.294118%,51.372549%);fill-opacity:1;" d="M 73.015625 22.734375 L 76.09375 29.335938 L 78.855469 28.050781 C 80.335938 27.363281 81.242188 26.53125 81.5625 25.566406 C 81.820312 24.730469 81.734375 23.828125 81.320312 23.058594 C 80.953125 22.242188 80.296875 21.59375 79.480469 21.230469 C 78.324219 20.726562 76.996094 20.785156 75.890625 21.390625 L 73.015625 22.730469 Z M 69.796875 15.847656 L 72.539062 21.730469 L 74.96875 20.585938 C 75.871094 20.226562 76.640625 19.601562 77.183594 18.796875 C 77.691406 17.972656 77.71875 16.941406 77.253906 16.089844 C 76.9375 15.304688 76.304688 14.691406 75.511719 14.398438 C 74.496094 14.050781 73.195312 14.25 71.605469 14.996094 L 69.804688 15.832031 Z M 73.125 31.929688 L 65.898438 16.445312 L 73.503906 12.898438 C 75.335938 12.042969 76.953125 11.867188 78.359375 12.378906 C 79.351562 12.699219 80.167969 13.414062 80.617188 14.351562 C 81.039062 15.179688 81.105469 16.144531 80.804688 17.023438 C 80.453125 17.949219 79.839844 18.757812 79.042969 19.34375 C 80.179688 19.007812 81.390625 19.007812 82.527344 19.34375 C 83.503906 19.675781 84.296875 20.398438 84.710938 21.339844 C 85.277344 22.46875 85.289062 23.796875 84.742188 24.9375 C 84.113281 26.28125 82.824219 27.40625 80.882812 28.300781 L 73.109375 31.929688 Z M 73.125 31.929688 "/>
<path style=" stroke:none;fill-rule:nonzero;fill:rgb(19.215686%,15.294118%,51.372549%);fill-opacity:1;" d="M 133.863281 8.441406 L 139.980469 1.511719 L 142.429688 1.59375 L 134.890625 10.113281 L 134.5625 19.210938 L 130.40625 19.070312 L 130.722656 10.523438 L 123.574219 0.964844 L 128.476562 1.125 Z M 133.863281 8.441406 "/>
<path style=" stroke:none;fill-rule:nonzero;fill:rgb(19.215686%,15.294118%,51.372549%);fill-opacity:1;" d="M 159.71875 23.875 L 155.96875 22.792969 L 160.511719 6.878906 L 156.574219 5.738281 L 156.886719 4.636719 L 168.582031 8.003906 L 168.269531 9.109375 L 164.265625 7.957031 Z M 159.71875 23.875 "/>
<path style=" stroke:none;fill-rule:nonzero;fill:rgb(19.215686%,15.294118%,51.372549%);fill-opacity:1;" d="M 170.867188 27.445312 L 179.683594 32.210938 L 179.167969 33.25 L 166.976562 26.652344 L 174.851562 10.652344 L 186.875 17.15625 L 186.367188 18.195312 L 177.71875 13.515625 L 174.683594 19.691406 L 182.886719 24.132812 L 182.371094 25.167969 L 174.167969 20.730469 Z M 170.867188 27.445312 "/>
<path style=" stroke:none;fill-rule:nonzero;fill:rgb(19.215686%,15.294118%,51.372549%);fill-opacity:1;" d="M 189.273438 13.695312 L 191.25 15.09375 L 185.621094 16.46875 L 184.539062 15.710938 Z M 189.273438 13.695312 "/>
<path style=" stroke:none;fill-rule:nonzero;fill:rgb(19.215686%,15.294118%,51.372549%);fill-opacity:1;" d="M 177.519531 11.804688 L 182.125 9.316406 L 184 10.300781 L 184.65625 15.554688 L 183.492188 14.945312 L 182.523438 10.886719 L 178.683594 12.417969 Z M 177.519531 11.804688 "/>
<path style="fill-rule:nonzero;fill:rgb(19.215686%,15.294118%,51.372549%);fill-opacity:1;stroke-width:0.5;stroke-linecap:butt;stroke-linejoin:miter;stroke:rgb(19.215686%,15.294118%,51.372549%);stroke-opacity:1;stroke-miterlimit:2.61;" d="M 145.369449 7.777872 L 144.191535 8.172533 L 146.547362 0.898614 L 148.417452 0.279299 L 154.671322 4.669152 L 153.487337 5.057742 L 148.241372 2.732273 Z M 159.850498 37.292497 C 159.425478 37.426074 158.970099 37.383572 158.581509 37.171062 C 158.16256 36.970695 157.852903 36.612464 157.719325 36.169229 C 157.579675 35.75028 157.622177 35.288829 157.840759 34.900239 C 158.022911 34.493434 158.368999 34.183777 158.787947 34.038055 C 159.212968 33.898406 159.674418 33.928764 160.06908 34.129131 C 160.481957 34.329498 160.785543 34.693801 160.919121 35.130965 C 161.05877 35.549913 161.016268 36.011364 160.797686 36.399954 C 160.621606 36.818903 160.275518 37.140704 159.850498 37.292497 Z M 159.850498 37.292497 " transform="matrix(0.643352,0,0,0.643352,0.0193005,0)"/>
<path style=" stroke:none;fill-rule:nonzero;fill:rgb(19.215686%,15.294118%,51.372549%);fill-opacity:1;" d="M 88.648438 15.136719 C 88.007812 12.667969 88.578125 10.042969 90.179688 8.0625 C 91.78125 6.003906 94.105469 4.664062 97.144531 4.046875 C 99.710938 3.433594 102.410156 3.828125 104.691406 5.148438 C 106.859375 6.46875 108.359375 8.652344 108.816406 11.148438 C 109.414062 13.519531 108.980469 16.027344 107.632812 18.066406 C 106.132812 20.351562 103.761719 21.820312 100.523438 22.472656 C 98.035156 23.058594 95.417969 22.742188 93.144531 21.570312 C 90.910156 20.46875 89.308594 18.394531 88.800781 15.957031 Z M 97.3125 5.28125 C 94.953125 5.757812 93.375 7.003906 92.570312 9.019531 C 91.902344 10.921875 91.824219 12.984375 92.351562 14.933594 C 92.6875 16.792969 93.609375 18.5 94.976562 19.800781 C 96.488281 21.191406 98.59375 21.722656 100.582031 21.21875 C 102.671875 20.839844 104.355469 19.28125 104.886719 17.222656 C 105.453125 15.445312 105.53125 13.550781 105.105469 11.734375 C 104.769531 9.945312 103.949219 8.28125 102.730469 6.929688 C 101.363281 5.425781 99.285156 4.792969 97.3125 5.28125 Z M 97.3125 5.28125 "/>
<path style=" stroke:none;fill-rule:nonzero;fill:rgb(19.215686%,15.294118%,51.372549%);fill-opacity:1;" d="M 31.601562 207.082031 L 42.550781 196.792969 L 44.675781 199.054688 L 40.242188 209.132812 L 50.394531 205.140625 L 52.394531 207.269531 L 41.445312 217.554688 L 39.507812 215.496094 L 48.328125 207.203125 L 35.808594 212.164062 L 41.378906 199.613281 L 32.429688 207.964844 Z M 31.601562 207.082031 "/>
<path style=" stroke:none;fill-rule:nonzero;fill:rgb(19.215686%,15.294118%,51.372549%);fill-opacity:1;" d="M 46.597656 222.234375 L 44.417969 220.4375 L 53.964844 208.839844 L 56.152344 210.640625 Z M 46.597656 222.234375 "/>
<path style=" stroke:none;fill-rule:nonzero;fill:rgb(19.215686%,15.294118%,51.372549%);fill-opacity:1;" d="M 50.257812 224.304688 L 49.253906 223.582031 L 58.628906 211.546875 L 60.71875 213.046875 L 60.847656 226.046875 L 67.339844 217.792969 L 68.351562 218.515625 L 58.976562 230.546875 L 57.925781 229.796875 L 57.792969 214.710938 Z M 50.257812 224.304688 "/>
<path style=" stroke:none;fill-rule:nonzero;fill:rgb(19.215686%,15.294118%,51.372549%);fill-opacity:1;" d="M 65.011719 234.25 L 62.585938 232.804688 L 70.28125 219.902344 L 72.710938 221.351562 Z M 65.011719 234.25 "/>
<path style=" stroke:none;fill-rule:nonzero;fill:rgb(19.215686%,15.294118%,51.372549%);fill-opacity:1;" d="M 69.023438 234.464844 L 70.375 234.21875 C 70.449219 234.878906 70.671875 235.511719 71.019531 236.078125 C 71.410156 236.59375 71.941406 236.992188 72.550781 237.214844 C 73.222656 237.5 73.972656 237.53125 74.667969 237.308594 C 75.375 237.109375 75.960938 236.609375 76.261719 235.9375 C 76.777344 234.851562 76.542969 233.558594 75.683594 232.71875 C 74.796875 231.789062 73.917969 230.859375 73.050781 229.933594 C 72.203125 228.820312 72.082031 227.308594 72.742188 226.074219 C 73.265625 224.964844 74.234375 224.132812 75.40625 223.785156 C 77.667969 223.113281 80.105469 223.902344 81.550781 225.765625 C 82.128906 226.488281 82.453125 227.375 82.476562 228.300781 L 81.28125 228.453125 C 81.28125 227.8125 81.125 227.183594 80.832031 226.613281 C 80.46875 225.996094 79.910156 225.519531 79.242188 225.261719 C 78.59375 224.957031 77.84375 224.941406 77.183594 225.21875 C 76.535156 225.507812 76.019531 226.027344 75.734375 226.679688 C 75.328125 227.535156 75.582031 228.480469 76.496094 229.507812 C 77.351562 230.460938 78.21875 231.4375 79.066406 232.351562 C 79.890625 233.539062 79.980469 235.085938 79.304688 236.359375 C 78.761719 237.546875 77.71875 238.429688 76.457031 238.765625 C 75.164062 239.15625 73.78125 239.074219 72.542969 238.535156 C 71.613281 238.179688 70.769531 237.625 70.074219 236.914062 C 69.464844 236.226562 69.085938 235.367188 68.992188 234.457031 Z M 69.023438 234.464844 "/>
<path style=" stroke:none;fill-rule:nonzero;fill:rgb(19.215686%,15.294118%,51.372549%);fill-opacity:1;" d="M 84.515625 242.710938 L 81.679688 241.785156 L 86.523438 228.503906 L 83.550781 227.539062 L 83.894531 226.621094 L 92.714844 229.484375 L 92.378906 230.402344 L 89.363281 229.425781 Z M 84.515625 242.710938 "/>
<path style=" stroke:none;fill-rule:nonzero;fill:rgb(19.215686%,15.294118%,51.372549%);fill-opacity:1;" d="M 92.40625 245.195312 L 89.503906 244.378906 L 94.140625 229.992188 L 100.800781 231.863281 C 102.011719 232.136719 103.042969 232.921875 103.632812 234.011719 C 104.140625 235.042969 104.207031 236.234375 103.8125 237.3125 C 103.542969 238.285156 102.824219 239.070312 101.882812 239.429688 C 100.839844 239.765625 99.730469 239.820312 98.664062 239.589844 L 100.59375 247.472656 L 97.378906 246.597656 L 95.589844 238.039062 L 95.78125 238.097656 C 96.84375 238.464844 97.992188 238.511719 99.082031 238.226562 C 100.027344 237.910156 100.753906 237.144531 101.011719 236.179688 C 101.308594 235.402344 101.289062 234.535156 100.960938 233.769531 C 100.554688 232.925781 99.675781 232.320312 98.386719 231.953125 L 96.816406 231.511719 L 92.410156 245.1875 Z M 92.40625 245.195312 "/>
<path style=" stroke:none;fill-rule:nonzero;fill:rgb(19.215686%,15.294118%,51.372549%);fill-opacity:1;" d="M 111.414062 239.9375 L 115.824219 234.246094 L 117.488281 234.367188 L 112.058594 241.367188 L 111.511719 248.996094 L 108.695312 248.796875 L 109.203125 241.628906 L 104.671875 233.445312 L 108.007812 233.683594 Z M 111.414062 239.9375 "/>
<path style=" stroke:none;fill-rule:nonzero;fill:rgb(19.215686%,15.294118%,51.372549%);fill-opacity:1;" d="M 125.394531 242.136719 C 125.371094 243.707031 125.6875 245.261719 126.320312 246.691406 C 126.929688 248.15625 128.386719 249.089844 129.96875 249.027344 C 131.542969 249.050781 132.960938 248.082031 133.515625 246.609375 C 134.121094 245.152344 134.394531 243.578125 134.304688 242.003906 C 134.328125 240.433594 134.003906 238.882812 133.355469 237.453125 C 132.726562 235.992188 131.265625 235.066406 129.675781 235.121094 C 128.109375 235.101562 126.699219 236.070312 126.15625 237.539062 C 125.566406 238.996094 125.304688 240.566406 125.394531 242.136719 Z M 122.347656 242.183594 C 122.238281 240.101562 122.953125 238.058594 124.335938 236.496094 C 125.683594 234.980469 127.628906 234.136719 129.65625 234.179688 C 131.695312 234.101562 133.675781 234.902344 135.085938 236.378906 C 138.007812 239.535156 138.117188 244.375 135.335938 247.65625 C 133.953125 249.144531 132.023438 250 129.996094 250.03125 C 127.96875 250.0625 126.011719 249.265625 124.585938 247.824219 C 123.140625 246.316406 122.335938 244.304688 122.347656 242.214844 Z M 122.347656 242.183594 "/>
<path style=" stroke:none;fill-rule:nonzero;fill:rgb(19.215686%,15.294118%,51.372549%);fill-opacity:1;" d="M 142.367188 248.734375 L 139.542969 248.808594 L 139.105469 233.792969 L 147.726562 233.542969 L 147.753906 234.515625 L 141.960938 234.6875 L 142.128906 240.476562 L 147.410156 240.324219 L 147.441406 241.296875 L 142.160156 241.457031 Z M 142.367188 248.734375 "/>
<path style=" stroke:none;fill-rule:nonzero;fill:rgb(19.215686%,15.294118%,51.372549%);fill-opacity:1;" d="M 160.414062 245.070312 L 157.679688 245.804688 L 153.792969 231.292969 L 156.519531 230.558594 L 158.226562 236.921875 L 164.183594 235.324219 L 162.476562 228.960938 L 165.210938 228.230469 L 169.097656 242.742188 L 166.371094 243.476562 L 164.5 236.488281 L 158.542969 238.085938 Z M 160.414062 245.070312 "/>
<path style=" stroke:none;fill-rule:nonzero;fill:rgb(19.215686%,15.294118%,51.372549%);fill-opacity:1;" d="M 175.917969 238.347656 L 182.652344 235.351562 L 183.054688 236.238281 L 173.730469 240.386719 L 167.617188 226.664062 L 176.8125 222.574219 L 177.210938 223.460938 L 170.605469 226.402344 L 172.957031 231.695312 L 179.230469 228.90625 L 179.625 229.792969 L 173.359375 232.585938 Z M 175.917969 238.347656 "/>
<path style=" stroke:none;fill-rule:nonzero;fill:rgb(19.215686%,15.294118%,51.372549%);fill-opacity:1;" d="M 187.660156 227.367188 L 183.15625 223.507812 L 183.832031 229.394531 L 187.691406 227.347656 Z M 194.3125 229.414062 L 191.738281 230.78125 L 188.488281 228.042969 L 183.910156 230.472656 L 184.46875 234.648438 L 183.257812 235.292969 L 181.417969 218.785156 L 194.285156 229.417969 Z M 194.3125 229.414062 "/>
<path style=" stroke:none;fill-rule:nonzero;fill:rgb(19.215686%,15.294118%,51.372549%);fill-opacity:1;" d="M 203.203125 223.230469 L 195.953125 228.304688 L 187.332031 216 L 189.652344 214.378906 L 197.574219 225.695312 L 202.515625 222.238281 Z M 203.203125 223.230469 "/>
<path style=" stroke:none;fill-rule:nonzero;fill:rgb(19.215686%,15.294118%,51.372549%);fill-opacity:1;" d="M 207.070312 219.300781 L 204.804688 221.121094 L 195.339844 210.355469 L 192.960938 212.265625 L 192.304688 211.519531 L 199.375 205.859375 L 200.03125 206.605469 L 197.613281 208.535156 Z M 207.070312 219.300781 "/>
<path style=" stroke:none;fill-rule:nonzero;fill:rgb(19.215686%,15.294118%,51.372549%);fill-opacity:1;" d="M 213.65625 213.683594 L 211.566406 215.84375 L 200.074219 204.753906 L 202.167969 202.585938 L 207.203125 207.449219 L 211.757812 202.734375 L 206.722656 197.871094 L 208.8125 195.707031 L 220.296875 206.804688 L 218.207031 208.96875 L 212.679688 203.628906 L 208.125 208.34375 Z M 213.65625 213.683594 "/>
</g>
</svg>
